<svg xmlns="http://www.w3.org/2000/svg" xmlns:xlink="http://www.w3.org/1999/xlink" version="1.1" width="100" height="100" viewBox="0 0 100 50" enable-background="new 0 0 100 100" xml:space="preserve"><path d="M89.302,38.664h-2.196v-6.769c0-0.414-0.336-0.75-0.75-0.75h-1.6c-0.414,0-0.75,0.336-0.75,0.75s0.336,0.75,0.75,0.75h0.85  v1.519l-5.823-2.537c-0.332-0.144-0.715-0.033-0.919,0.264l-1.076,1.572c-0.233,0.342-0.146,0.809,0.195,1.042  c0.343,0.235,0.81,0.146,1.043-0.195l0.726-1.061l3.201,1.395v4.02H10.698c-1.514,0-2.745,1.231-2.745,2.744  s1.231,2.745,2.745,2.745h2.361l3.123,12.408c0.988,3.927,2.766,6.835,5.107,8.531c-0.102,0.066-0.191,0.149-0.252,0.264L20,67.324  c-0.192,0.363-0.053,0.814,0.312,1.006l0.833,0.44c0.364,0.191,0.815,0.051,1.007-0.312l1.038-1.968  c0.052-0.099,0.075-0.203,0.081-0.308c1.031,0.405,2.139,0.621,3.316,0.621h46.828c1.177,0,2.284-0.216,3.315-0.621  c0.005,0.104,0.029,0.209,0.081,0.308l1.038,1.968c0.191,0.363,0.642,0.504,1.007,0.312l0.833-0.44  c0.364-0.191,0.503-0.643,0.312-1.006l-1.039-1.969c-0.06-0.114-0.15-0.197-0.251-0.264c2.342-1.696,4.118-4.604,5.107-8.53  l3.122-12.409h2.361c1.514,0,2.745-1.231,2.745-2.745S90.815,38.664,89.302,38.664z M84.452,35.297l1.153,0.502v2.864h-1.153V35.297  z M82.363,56.194c-0.856,3.402-3.158,9.109-8.948,9.109H26.587c-5.792,0-8.093-5.707-8.949-9.108l-3.031-12.042h70.787  L82.363,56.194z M89.302,42.652H10.698c-0.687,0-1.245-0.558-1.245-1.245c0-0.686,0.559-1.244,1.245-1.244h78.604  c0.687,0,1.245,0.558,1.245,1.244C90.547,42.094,89.988,42.652,89.302,42.652z M19.259,53.624c0.377,2.587,2.793,7.015,4.053,8.319  c0.146,0.152,0.343,0.229,0.539,0.229c0.188,0,0.375-0.07,0.521-0.211c0.297-0.287,0.306-0.762,0.018-1.061  c-1.104-1.144-3.323-5.278-3.646-7.493c-0.061-0.409-0.441-0.692-0.851-0.634C19.483,52.834,19.199,53.214,19.259,53.624z   M18.462,50.366c0.086,0.341,0.391,0.568,0.727,0.568c0.061,0,0.123-0.008,0.184-0.023c0.402-0.101,0.646-0.508,0.545-0.91  l-0.742-2.951c-0.102-0.401-0.51-0.643-0.91-0.545c-0.402,0.101-0.646,0.509-0.545,0.91L18.462,50.366z"/></svg>